<?xml version="1.0" encoding="UTF-8"?><svg id="logo" xmlns="http://www.w3.org/2000/svg" viewBox="0 0 287.66 83.69"><defs><style>.cls-1{fill:none;}.cls-2{fill:#e2750f;}</style></defs><g><path d="M93.77,37.97h-.05l-4.61,12.89h-1.37l-4.45-12.89h-.05l-1.81,12.62h-3.99l3.42-20.88h2.81l5.02,13.41,4.8-13.41h2.86l3.05,20.88h-3.99l-1.62-12.62Z"/><path d="M114.7,43.98c0,4.1-2.8,7.04-6.96,7.04s-6.96-2.94-6.96-7.04,2.83-7.07,6.96-7.07,6.96,2.94,6.96,7.07Zm-10.09,0c0,1.78,1.19,3.7,3.13,3.7s3.13-1.92,3.13-3.7-1.19-3.72-3.13-3.72-3.13,1.89-3.13,3.72Z"/><path d="M120.93,38.56h.05c.78-1.19,2.1-1.64,3.45-1.64,3.56,0,4.58,2.51,4.58,5.58v8.09h-3.78v-7.01c0-1.59,.08-3.64-2.05-3.64-2.24,0-2.27,2.51-2.27,4.1v6.55h-3.78v-13.24h3.78v1.21Z"/><path d="M135.44,44.57c0,1.67,.64,3.56,2.61,3.56,1.24,0,2.02-.76,2.54-1.81l3.48,.57c-.92,2.64-3.24,4.13-6.02,4.13-4.1,0-6.61-2.91-6.61-6.93s2.13-7.17,6.42-7.17,6.28,3.21,6.28,7.2v.46h-8.71Zm5.15-2.35c-.19-1.35-1.05-2.67-2.51-2.67s-2.35,1.29-2.53,2.67h5.04Z"/><path d="M144.74,37.34h4.29l3.16,7.53,3.4-7.53h4.21l-9.63,20.31h-4.15l4.37-9.09-5.64-11.22Z"/><g><path class="cls-2" d="M171.65,33.7v4.48h5.74v3.45h-5.74v8.95h-3.97V30.25h10.09v3.45h-6.12Z"/><path class="cls-2" d="M192.42,43.98c0,4.1-2.81,7.04-6.96,7.04s-6.96-2.94-6.96-7.04,2.83-7.07,6.96-7.07,6.96,2.94,6.96,7.07Zm-10.09,0c0,1.78,1.19,3.7,3.13,3.7s3.13-1.92,3.13-3.7-1.19-3.72-3.13-3.72-3.13,1.89-3.13,3.72Z"/><path class="cls-2" d="M198.65,38.72h.05c.76-1.16,1.89-1.81,3.29-1.81,.54,0,1.08,.14,1.57,.32l-.46,3.51c-.46-.33-1-.49-1.56-.49-2.62,0-2.89,2.32-2.89,4.37v5.96h-3.78v-13.24h3.78v1.38Z"/><path class="cls-2" d="M225.84,39.84l-5.22,11.02h-1.91l-2.84-8.06-3.15,8.06h-1.94l-6.09-13.51h4.13l2.92,6.99,3.06-7.43h2.1l3,7.29,2.59-5.65s3.28-8.19,10.89-8.22l.74,3.18s-5.32-.37-8.27,6.32Z"/><path class="cls-2" d="M240.82,50.59h-3.72v-1.21h-.05c-.81,1.05-2.21,1.64-3.59,1.64-3.88,0-6.1-3.54-6.1-7.12s2.24-6.99,6.04-6.99c1.38,0,2.78,.59,3.7,1.67v-1.24h3.72v13.24Zm-3.34-6.63c0-1.78-1.21-3.7-3.15-3.7s-3.13,1.91-3.13,3.7,1.19,3.72,3.13,3.72,3.15-1.94,3.15-3.72Z"/><path class="cls-2" d="M247.99,38.72h.05c.76-1.16,1.89-1.81,3.29-1.81,.54,0,1.08,.14,1.56,.32l-.46,3.51c-.46-.33-1-.49-1.56-.49-2.61,0-2.89,2.32-2.89,4.37v5.96h-3.78v-13.24h3.78v1.38Z"/><path class="cls-2" d="M263.55,49.35h-.05c-.78,1.08-2.18,1.67-3.56,1.67-3.88,0-6.1-3.54-6.1-7.12s2.24-6.99,6.04-6.99c1.37,0,2.78,.59,3.61,1.64h.05v-8.31h3.78v20.34h-3.78v-1.24Zm.38-5.39c0-1.78-1.19-3.7-3.13-3.7s-3.13,1.91-3.13,3.7,1.19,3.72,3.13,3.72,3.13-1.94,3.13-3.72Z"/></g><g><path class="cls-2" d="M52.48,47.5c-1.11,.04-2.15-.49-2.79-1.4l-3.65-5.21-2.82,8.24c-.39,1.14-1.37,1.97-2.55,2.17-1.19,.2-2.38-.26-3.13-1.2l-2.48-3.15-1.8,5.79c-.44,1.4-1.73,2.31-3.13,2.31-.32,0-.65-.05-.98-.15-1.73-.54-2.7-2.38-2.16-4.11l3.66-11.74c.36-1.16,1.34-2.03,2.54-2.25,1.2-.22,2.42,.24,3.17,1.2l2.61,3.31,2.96-8.64c.4-1.17,1.42-2.01,2.64-2.19,1.22-.17,2.44,.36,3.15,1.37l4.48,6.4,6.04-9.85c-3.93-4.74-9.86-7.76-16.49-7.76-11.82,0-21.41,9.59-21.41,21.41s9.59,21.41,21.41,21.41,21.41-9.59,21.41-21.41c0-2.5-.43-4.9-1.22-7.13l-6.76,11.02c-.58,.94-1.59,1.53-2.7,1.56Z"/><path class="cls-2" d="M68.87,24.59c0,2.35-1.9,4.25-4.25,4.25s-4.26-1.91-4.26-4.25,1.9-4.26,4.26-4.26,4.25,1.9,4.25,4.26Z"/></g></g><rect class="cls-1" width="287.66" height="83.69"/></svg>